<svg width="54" height="45" viewBox="0 0 54 45" fill="none" xmlns="http://www.w3.org/2000/svg">
<path fill-rule="evenodd" clip-rule="evenodd" d="M42.723 31.9165C42.0791 31.6671 41.5458 31.2382 41.0932 30.6769C41.0564 30.7564 41.0198 30.8355 40.9834 30.914C39.3833 34.364 38.2038 36.7645 37.0051 38.4912C35.8533 40.1503 34.7569 41.0766 33.3518 41.6472C31.866 42.2506 29.8582 42.53 26.7356 42.53C23.5823 42.53 21.5568 42.302 20.0521 41.7485C18.6474 41.2317 17.5661 40.3811 16.4313 38.7997C15.2419 37.1421 14.0624 34.781 12.4627 31.2967C12.3884 31.1349 12.3133 30.9709 12.2373 30.8046C11.7739 31.343 11.2281 31.7465 10.5704 31.9684C15.3999 42.5053 17.0941 44.53 26.7356 44.53C36.2769 44.53 38.0166 42.0514 42.723 31.9165ZM34.9487 1.72263C32.431 1.15683 29.6627 0.89064 26.7188 0.89064C23.7752 0.89064 21.007 1.15678 18.4895 1.72248C18.6731 2.31269 18.777 2.97512 18.8156 3.6993C21.1763 3.15794 23.8277 2.89064 26.7188 2.89064C29.6102 2.89064 32.2618 3.15799 34.6227 3.69947C34.6613 2.97528 34.7652 2.31285 34.9487 1.72263Z" fill="#B80F0F"/>
<path d="M50.1161 14.8946C51.8074 19.4575 52.5745 22.9246 51.9372 25.5316C51.3385 27.9804 49.4134 29.9324 44.8813 31.2477C43.6474 31.6058 42.8239 31.4887 42.2289 31.1796C41.609 30.8574 41.0761 30.244 40.5991 29.3064C40.1223 28.3693 39.7482 27.2023 39.3945 25.8942C39.25 25.3595 39.1018 24.7715 38.9507 24.1718C38.7563 23.4004 38.557 22.6096 38.3542 21.8877C37.6504 18.3489 36.4189 15.0381 35.374 12.2288C34.96 11.1157 34.5752 10.0812 34.2642 9.1426C33.6956 7.42651 33.3832 6.07416 33.4343 5.03073C33.481 4.07602 33.823 3.42342 34.6412 2.93918C35.6863 2.32063 36.9721 2.27994 38.4737 2.78286C39.984 3.28871 41.6135 4.31734 43.1948 5.66774C46.3701 8.37942 49.1083 12.1758 50.1161 14.8946Z" stroke="#B80F0F" stroke-width="2"/>
<path d="M3.88393 14.8946C2.19261 19.4575 1.42545 22.9246 2.06279 25.5316C2.66148 27.9804 4.58657 29.9324 9.11869 31.2477C10.3526 31.6058 11.1761 31.4887 11.7711 31.1796C12.391 30.8574 12.9239 30.244 13.4009 29.3064C13.8777 28.3693 14.2518 27.2023 14.6055 25.8942C14.75 25.3595 14.8982 24.7715 15.0493 24.1718C15.2437 23.4004 15.443 22.6096 15.6458 21.8877C16.3496 18.3489 17.5811 15.0381 18.626 12.2288C19.04 11.1157 19.4248 10.0812 19.7358 9.1426C20.3044 7.42651 20.6168 6.07416 20.5657 5.03073C20.519 4.07602 20.177 3.42342 19.3588 2.93918C18.3137 2.32063 17.0279 2.27994 15.5263 2.78286C14.016 3.28871 12.3865 4.31734 10.8052 5.66774C7.62989 8.37942 4.89173 12.1758 3.88393 14.8946Z" stroke="#B80F0F" stroke-width="2"/>
<path d="M21.8204 37.4051L26.7189 36.1968M31.6173 37.4051L26.7189 36.1968M26.7189 36.1968C26.7189 33.6061 26.7189 29.7311 26.7189 34.956" stroke="#B80F0F"/>
<path d="M29.9845 30.0577C29.9845 31.4103 28.5225 33.3232 26.7189 33.3232C24.9153 33.3232 23.4533 31.4103 23.4533 30.0577C23.4533 28.7051 24.9153 27.6086 26.7189 27.6086C28.5225 27.6086 29.9845 28.7051 29.9845 30.0577Z" fill="#B80F0F"/>
<ellipse rx="2.44921" ry="1.63278" transform="matrix(0.869349 0.494199 -0.494223 0.869335 20.7487 25.7854)" fill="#B80F0F"/>
<ellipse rx="2.44921" ry="1.63278" transform="matrix(0.869329 -0.494233 0.494257 0.869316 32.9207 25.3401)" fill="#B80F0F"/>
<rect width="8.38864" height="1.85611" rx="0.928053" transform="matrix(0.767535 0.641007 -0.641031 0.767515 19.0023 17.812)" fill="#B80F0F"/>
<rect width="8.38864" height="1.85611" rx="0.928053" transform="matrix(0.767511 -0.641036 0.64106 0.767491 28.3517 23.1894)" fill="#B80F0F"/>
</svg>
