<svg width="54" height="45" viewBox="0 0 54 45" fill="none" xmlns="http://www.w3.org/2000/svg">
<path fill-rule="evenodd" clip-rule="evenodd" d="M42.723 31.9175C42.0791 31.6681 41.5458 31.2392 41.0932 30.6779C41.0564 30.7574 41.0198 30.8365 40.9834 30.915C39.3833 34.3651 38.2038 36.7657 37.0051 38.4925C35.8533 40.1517 34.7569 41.078 33.3518 41.6486C31.866 42.252 29.8582 42.5314 26.7356 42.5314C23.5823 42.5314 21.5569 42.3034 20.0522 41.7499C18.6475 41.2331 17.5661 40.3825 16.4314 38.801C15.242 37.1434 14.0624 34.7822 12.4627 31.2978C12.3885 31.136 12.3133 30.9719 12.2373 30.8056C11.7739 31.3441 11.2282 31.7475 10.5705 31.9694C15.3999 42.5066 17.0941 44.5314 26.7356 44.5314C36.277 44.5314 38.0166 42.0527 42.723 31.9175ZM34.9487 1.72271C32.4311 1.15688 29.6627 0.890686 26.7188 0.890686C23.7752 0.890686 21.0071 1.15683 18.4896 1.72255C18.6732 2.31276 18.777 2.97519 18.8156 3.69938C21.1763 3.15799 23.8277 2.89069 26.7188 2.89069C29.6102 2.89069 32.2619 3.15805 34.6227 3.69954C34.6613 2.97536 34.7652 2.31292 34.9487 1.72271Z" fill="#186D0B"/>
<path d="M50.116 14.895C51.8074 19.458 52.5745 22.9254 51.9372 25.5324C51.3385 27.9813 49.4134 29.9334 44.8813 31.2488C43.6474 31.6069 42.8239 31.4898 42.2289 31.1806C41.609 30.8584 41.0761 30.245 40.5991 29.3074C40.1223 28.3702 39.7482 27.2032 39.3945 25.895C39.25 25.3603 39.1018 24.7723 38.9507 24.1725C38.7563 23.4012 38.557 22.6103 38.3542 21.8884C37.6504 18.3495 36.4189 15.0386 35.374 12.2292C34.96 11.116 34.5752 10.0816 34.2642 9.1429C33.6956 7.42676 33.3832 6.07436 33.4343 5.03089C33.481 4.07612 33.823 3.42349 34.6412 2.93925C35.6862 2.32067 36.9721 2.27999 38.4737 2.78292C39.984 3.28878 41.6135 4.31745 43.1948 5.66789C46.3701 8.37966 49.1082 12.1761 50.116 14.895Z" stroke="#186D0B" stroke-width="2"/>
<path d="M3.88394 14.895C2.19262 19.458 1.42545 22.9254 2.06279 25.5324C2.66149 27.9813 4.58658 29.9334 9.11869 31.2488C10.3526 31.6069 11.1761 31.4898 11.7711 31.1806C12.391 30.8584 12.9239 30.245 13.4009 29.3074C13.8777 28.3702 14.2518 27.2032 14.6055 25.895C14.75 25.3603 14.8982 24.7723 15.0493 24.1725C15.2437 23.4012 15.443 22.6103 15.6458 21.8884C16.3496 18.3495 17.5811 15.0386 18.626 12.2292C19.04 11.116 19.4247 10.0816 19.7358 9.1429C20.3044 7.42676 20.6168 6.07436 20.5657 5.03089C20.519 4.07612 20.177 3.42349 19.3588 2.93925C18.3137 2.32067 17.0279 2.27999 15.5263 2.78292C14.016 3.28878 12.3865 4.31745 10.8052 5.66789C7.6299 8.37966 4.89174 12.1761 3.88394 14.895Z" stroke="#186D0B" stroke-width="2"/>
<circle cx="21.5" cy="23.5" r="1.5" fill="#186D0B"/>
<circle cx="32.5" cy="23.5" r="1.5" fill="#186D0B"/>
<path d="M30.2813 28.5001C30.2813 29.4838 28.6863 32.0626 26.7188 32.0626C24.7513 32.0626 23.1563 29.4838 23.1563 28.5001C23.1563 27.5163 24.7513 26.7188 26.7188 26.7188C28.6863 26.7188 30.2813 27.5163 30.2813 28.5001Z" fill="#186D0B"/>
<path d="M26.3165 33.7674C26.6885 33.7674 26.9964 34.0716 26.9265 34.4369C26.7934 35.1326 26.4546 35.7784 25.9465 36.2865C25.2784 36.9546 24.3723 37.3299 23.4275 37.3299C22.4826 37.3299 21.5765 36.9546 20.9084 36.2865C20.4003 35.7784 20.0615 35.1326 19.9284 34.4369C19.8585 34.0716 20.1664 33.7674 20.5384 33.7674C20.9103 33.7674 21.202 34.0757 21.3133 34.4305C21.4193 34.7684 21.6057 35.0791 21.8607 35.3341C22.2762 35.7497 22.8398 35.9831 23.4275 35.9831C24.0151 35.9831 24.5787 35.7497 24.9942 35.3341C25.2492 35.0791 25.4356 34.7684 25.5416 34.4305C25.6529 34.0757 25.9446 33.7674 26.3165 33.7674Z" fill="#186D0B"/>
<path d="M32.2254 33.7516C32.5973 33.7516 32.9053 34.0557 32.8354 34.421C32.7022 35.1168 32.3635 35.7625 31.8554 36.2706C31.1873 36.9387 30.2811 37.3141 29.3363 37.3141C28.3915 37.3141 27.4853 36.9387 26.8172 36.2706C26.3091 35.7625 25.9704 35.1168 25.8373 34.421C25.7674 34.0557 26.0753 33.7516 26.4472 33.7516C26.8191 33.7516 27.1109 34.0598 27.2222 34.4147C27.3282 34.7525 27.5146 35.0633 27.7696 35.3183C28.1851 35.7338 28.7487 35.9672 29.3363 35.9672C29.9239 35.9672 30.4875 35.7338 30.903 35.3183C31.158 35.0633 31.3445 34.7525 31.4504 34.4147C31.5618 34.0598 31.8535 33.7516 32.2254 33.7516Z" fill="#186D0B"/>
<line x1="26.3282" y1="30.2813" x2="26.3282" y2="34.7345" stroke="#186D0B"/>
</svg>
